<?xml version="1.0" encoding="UTF-8"?><svg id="Layer_6" xmlns="http://www.w3.org/2000/svg" width="349.5" height="345.06" viewBox="0 0 349.5 345.06"><rect x="2.5" y="156.8" width="44.69" height="76.98" rx="13" ry="13" style="fill:#828282; stroke:#fff; stroke-miterlimit:10; stroke-width:5px;"/><rect x="299.33" y="156.8" width="47.67" height="76.98" rx="13" ry="13" style="fill:#828282; stroke:#fff; stroke-miterlimit:10; stroke-width:5px;"/><g><path d="m39.96,146.16v-31.96c0-15.56,12.07-28.17,26.95-28.17h215.63c14.89,0,26.95,12.61,26.95,28.17v31.97" style="fill:#fff; stroke:#828282; stroke-linecap:round; stroke-miterlimit:10; stroke-width:16px;"/><path d="m39.96,244.42v38.79c0,15.56,12.07,28.17,26.95,28.17h215.63c14.89,0,26.95-12.61,26.95-28.17v-38.8" style="fill:#fff; stroke:#828282; stroke-linecap:round; stroke-miterlimit:10; stroke-width:16px;"/></g><g><rect x="26.83" y="150.17" width="295.81" height="91.32" rx="9" ry="9" style="fill:#828282;"/><path d="m313.64,154.17c2.71,0,5,2.29,5,5v73.32c0,2.71-2.29,5-5,5H35.83c-2.71,0-5-2.29-5-5v-73.32c0-2.71,2.29-5,5-5h277.81m0-8H35.83c-7.15,0-13,5.85-13,13v73.32c0,7.15,5.85,13,13,13h277.81c7.15,0,13-5.85,13-13v-73.32c0-7.15-5.85-13-13-13h0Z" style="fill:#fff;"/></g><line x1="160.13" y1="81.33" x2="105.83" y2="33.7" style="fill:#fff; stroke:#828282; stroke-linecap:round; stroke-miterlimit:10; stroke-width:9px;"/><line x1="194.02" y1="78.96" x2="245.19" y2="33.7" style="fill:#fff; stroke:#828282; stroke-linecap:round; stroke-miterlimit:10; stroke-width:9px;"/></svg>