<svg xmlns="http://www.w3.org/2000/svg" xmlns:xlink="http://www.w3.org/1999/xlink" viewBox="0 0 56 56"><defs><style>.a{clip-path:url(#b);}</style><clipPath id="b"><rect width="56" height="56"/></clipPath></defs><g id="a" class="a"><g transform="translate(8 17)"><path d="M26.1,24H13.8a6.018,6.018,0,0,1-6-6V6a6.018,6.018,0,0,1,6-6H26.1a6.018,6.018,0,0,1,6,6V18A6.018,6.018,0,0,1,26.1,24ZM13.8,4a2.006,2.006,0,0,0-2,2V18a2.006,2.006,0,0,0,2,2H26.1a2.006,2.006,0,0,0,2-2V6a2.006,2.006,0,0,0-2-2Z"/><path d="M0,1.2v4A1.824,1.824,0,0,1,1,6.9V17.3A2.062,2.062,0,0,1,0,19v4a5.7,5.7,0,0,0,4.8-5.6V6.8A5.7,5.7,0,0,0,0,1.2Z"/><path d="M40.2,5V1.1a5.665,5.665,0,0,0-5.1,5.7V17.2a5.737,5.737,0,0,0,5.1,5.7V19a1.831,1.831,0,0,1-1.3-1.8V6.8A1.75,1.75,0,0,1,40.2,5Z"/></g></g></svg>