<svg xmlns="http://www.w3.org/2000/svg" xmlns:xlink="http://www.w3.org/1999/xlink" viewBox="0 0 56 56"><defs><style>.a{clip-path:url(#b);}</style><clipPath id="b"><rect width="56" height="56"/></clipPath></defs><g id="a" class="a"><g transform="translate(8 8.05)"><path d="M36.9,3.1V24.3H3.2V3.1H36.9m1-3.1H2.1A2.112,2.112,0,0,0,0,2.1V25.4a2.051,2.051,0,0,0,2.1,2.1H37.9A2.051,2.051,0,0,0,40,25.4V2.1A2.051,2.051,0,0,0,37.9,0Z"/><rect width="9.4" height="4" transform="translate(0 33.9)"/><rect width="26.6" height="4" transform="translate(13.4 33.9)"/><rect width="4" height="8" transform="translate(13.4 31.9)"/><g transform="translate(9.013 9.013)"><circle cx="2.2" cy="2.2" r="2.2" transform="translate(21.9 -4)"/><path d="M18.6,3.3A7.483,7.483,0,0,1,16.5-.6a.657.657,0,0,1,.5-.8h.3a.576.576,0,0,1,.6.6,6.19,6.19,0,0,0,4.9,4.9.9.9,0,0,1,.6.6v.1a.645.645,0,0,1-.6.6h-.2A7.106,7.106,0,0,1,18.6,3.3Z"/><path d="M22.8,6.5h-.4a9.864,9.864,0,0,1-4.5-2.4A9.067,9.067,0,0,1,15.5-.3a1.721,1.721,0,0,1,.2-1.2,1.445,1.445,0,0,1,1-.7h.5A1.617,1.617,0,0,1,18.8-.8a5.376,5.376,0,0,0,4.1,4.1,1.819,1.819,0,0,1,1.4,1.6v.2a1.5,1.5,0,0,1-.4,1.1,1.431,1.431,0,0,1-1.1.3Zm-.2-1.4ZM17-.6Zm.5-.2Z"/><path d="M15.3,6.7a12.368,12.368,0,0,0,7.4,3.6.749.749,0,0,1,.6.7h0a.684.684,0,0,1-.7.7h-.1a13.068,13.068,0,0,1-8.2-4,14.165,14.165,0,0,1-4-8.2.76.76,0,0,1,.6-.8H11a.749.749,0,0,1,.7.6A12.368,12.368,0,0,0,15.3,6.7Z"/><path d="M22.6,12.6h-.2a13.69,13.69,0,0,1-8.8-4.3A14.452,14.452,0,0,1,9.3-.5a1.922,1.922,0,0,1,.4-1.2,1.382,1.382,0,0,1,1.1-.6h.3A1.708,1.708,0,0,1,12.7-.8,11.239,11.239,0,0,0,16,6h0a11.528,11.528,0,0,0,6.8,3.3,1.624,1.624,0,0,1,1.5,1.6,1.685,1.685,0,0,1-1.7,1.7ZM11.3-.7Z"/></g></g></g></svg>