<?xml version="1.0" encoding="utf-8"?>
<!-- Generator: Adobe Illustrator 23.0.4, SVG Export Plug-In . SVG Version: 6.00 Build 0)  -->
<svg version="1.1" id="Layer_1" xmlns="http://www.w3.org/2000/svg" xmlns:xlink="http://www.w3.org/1999/xlink" x="0px" y="0px"
	 viewBox="0 0 511 511" style="enable-background:new 0 0 511 511;" xml:space="preserve">
<path d="M492,0H21C9.9,0,1,8.9,1,20c0,55.6,23.8,108.7,65.4,145.6l87.4,77.7c15.2,13.5,23.9,32.8,23.9,53.1V491
	c0,15.9,17.8,25.4,31,16.6l117.8-78.5c5.6-3.7,8.9-9.9,8.9-16.6V296.4c0-20.3,8.7-39.6,23.9-53.1l87.4-77.7
	C488.1,128.6,512,75.5,512,20C512,8.9,503,0,492,0z"/>
</svg>
