<svg xmlns="http://www.w3.org/2000/svg" xmlns:xlink="http://www.w3.org/1999/xlink" viewBox="0 0 56 56"><defs><style>.a{clip-path:url(#b);}</style><clipPath id="b"><rect width="56" height="56"/></clipPath></defs><g id="a" class="a"><g transform="translate(9.013 9.013)"><circle cx="4.6" cy="4.6" r="4.6" transform="translate(15.1 15.1)"/><path d="M11.9,12a10.59,10.59,0,0,1,5.6-3,.9.9,0,0,1,1.1.9v.2a.948.948,0,0,1-.8.9,8.992,8.992,0,0,0-7,7,.961.961,0,0,1-.9.8H9.7a.9.9,0,0,1-.9-1.1A11.361,11.361,0,0,1,11.9,12Z"/><path d="M26.1,26.1a8.3,8.3,0,0,0,2.4-4.5.974.974,0,0,1,1-.8h0a1.055,1.055,0,0,1,1,1.2A11.1,11.1,0,0,1,22,30.5a1,1,0,0,1-1.2-1h0a.974.974,0,0,1,.8-1A8.655,8.655,0,0,0,26.1,26.1Z"/><path d="M33.7,5.7a19.947,19.947,0,0,1,5.7,12,.919.919,0,0,1-.9,1h-.2a.961.961,0,0,1-.9-.8A17.779,17.779,0,0,0,21.6,2a.817.817,0,0,1-.8-.9V.9a.919.919,0,0,1,1-.9A19.949,19.949,0,0,1,33.7,5.7Z"/><path d="M7.1,32.3a17.408,17.408,0,0,0,10.6,5.1,1.063,1.063,0,0,1,.9,1h0a.972.972,0,0,1-1.1,1A19.124,19.124,0,0,1,5.7,33.7,19.664,19.664,0,0,1,0,21.9a.972.972,0,0,1,1-1.1H1a1.063,1.063,0,0,1,1,.9A17.408,17.408,0,0,0,7.1,32.3Z"/><path d="M30.7,29.2l-.2-.2a1.048,1.048,0,0,1-.1-1.2,12.958,12.958,0,0,0,2.7-8.1,13.591,13.591,0,0,0-2.7-8.1.817.817,0,0,1,.1-1.2l.1-.1a.972.972,0,0,1,1.4.1,15.452,15.452,0,0,1,0,18.7A.859.859,0,0,1,30.7,29.2Z"/><path d="M6.3,19.7a12.88,12.88,0,0,0,2.7,8A.935.935,0,0,1,8.9,29h0a1.007,1.007,0,0,1-1.5-.1,15.45,15.45,0,0,1,0-18.5.942.942,0,0,1,1.5-.1h0A.942.942,0,0,1,9,11.6,13.373,13.373,0,0,0,6.3,19.7Z"/></g></g></svg>