<svg xmlns="http://www.w3.org/2000/svg" xmlns:xlink="http://www.w3.org/1999/xlink" viewBox="0 0 56 56"><defs><style>.a{clip-path:url(#b);}</style><clipPath id="b"><rect width="56" height="56"/></clipPath></defs><g id="a" class="a"><g transform="translate(8.15 15.955)"><circle cx="4.6" cy="4.6" r="4.6" transform="translate(15.2 8.2)"/><path d="M30.8,12.8A11.142,11.142,0,0,1,29,18.9a.842.842,0,0,1-1.4.1l-.1-.1a1.048,1.048,0,0,1-.1-1.2,8.917,8.917,0,0,0,0-9.9,1.048,1.048,0,0,1,.1-1.2l.1-.1a.978.978,0,0,1,1.4.2A11.389,11.389,0,0,1,30.8,12.8Z"/><path d="M10.8,12.8a8.356,8.356,0,0,0,1.5,4.9.91.91,0,0,1-.1,1.2h0a.948.948,0,0,1-1.5-.2,10.582,10.582,0,0,1-1.8-6,10.582,10.582,0,0,1,1.8-6,1.013,1.013,0,0,1,1.5-.2h0a.91.91,0,0,1,.1,1.2A9.463,9.463,0,0,0,10.8,12.8Z"/><path d="M39.7,12.8a20.065,20.065,0,0,1-4.4,12.5.942.942,0,0,1-1.3.1l-.1-.1a.913.913,0,0,1,0-1.2,17.766,17.766,0,0,0,0-22.4.91.91,0,0,1,0-1.2L34,.4a.8.8,0,0,1,1.3.1A19.318,19.318,0,0,1,39.7,12.8Z"/><path d="M2,12.8A17.655,17.655,0,0,0,5.9,23.9a.935.935,0,0,1-.1,1.3h0a1.007,1.007,0,0,1-1.5-.1A19.189,19.189,0,0,1,0,12.8,19.388,19.388,0,0,1,4.4.4,1.077,1.077,0,0,1,5.9.3h0A.942.942,0,0,1,6,1.6,17.652,17.652,0,0,0,2,12.8Z"/><path d="M30.8,22.3l-.1-.1a1.048,1.048,0,0,1-.1-1.2,12.958,12.958,0,0,0,2.7-8.1,13.591,13.591,0,0,0-2.7-8.1.817.817,0,0,1,.1-1.2l.1-.1a.972.972,0,0,1,1.4.1,15.452,15.452,0,0,1,0,18.7A1.065,1.065,0,0,1,30.8,22.3Z"/><path d="M6.4,12.8a12.88,12.88,0,0,0,2.7,8A.935.935,0,0,1,9,22.1H9A1.007,1.007,0,0,1,7.5,22,15.452,15.452,0,0,1,7.4,3.6,1.041,1.041,0,0,1,9,3.5H9A1.049,1.049,0,0,1,9,4.8,13.425,13.425,0,0,0,6.4,12.8Z"/></g></g></svg>