<?xml version="1.0" encoding="utf-8"?>
<!-- Generator: Adobe Illustrator 27.5.0, SVG Export Plug-In . SVG Version: 6.00 Build 0)  -->
<svg version="1.1" xmlns="http://www.w3.org/2000/svg" xmlns:xlink="http://www.w3.org/1999/xlink" x="0px" y="0px"
	 viewBox="0 0 349.5 345.1" style="enable-background:new 0 0 349.5 345.1;" xml:space="preserve">
<style type="text/css">
	.st0{display:none;}
	.st1{display:inline;fill:none;stroke:#828282;stroke-width:30;stroke-linecap:round;stroke-miterlimit:10;}
	.st2{fill:#828282;}
	.st3{fill:none;stroke:#828282;stroke-width:23;stroke-linecap:round;stroke-miterlimit:10;}
</style>
<g id="Layer_2">
</g>
<g id="Layer_6">
	<g class="st0">
		<path class="st1" d="M40,146.2v-32C40,98.6,52,86,66.9,86h215.6c14.9,0,27,12.6,27,28.2v32"/>
		<path class="st1" d="M40,244.4v38.8c0,15.6,12.1,28.2,27,28.2h215.6c14.9,0,27-12.6,27-28.2v-38.8"/>
	</g>
	<g>
		<path class="st2" d="M311.5,248.8h-19v47.5H53v-47.5H33.7c-4.5,0-8.4-2.3-10.7-5.7v55.2c0,15.4,12.6,28,28,28h243.5
			c15.4,0,28-12.6,28-28v-55.7C320.2,246.4,316.1,248.8,311.5,248.8z"/>
		<path class="st2" d="M33.7,149.5H53V102h239.5v47.5h19c4.6,0,8.7,2.5,11,6.1V100c0-15.4-12.6-28-28-28H51c-15.4,0-28,12.6-28,28
			v55.2C25.3,151.8,29.2,149.5,33.7,149.5z"/>
		<path class="st2" d="M20.7,162.5c0-1.1,0.2-2.2,0.4-3.2h-5.6c-7.2,0-13,5.8-13,13v51c0,7.2,5.8,13,13,13h5.2c0-0.2,0-0.3,0-0.5
			V162.5z"/>
		<path class="st2" d="M334,159.3h-9.9c0.3,1,0.4,2.1,0.4,3.2v73.3c0,0.2,0,0.3,0,0.5h9.5c7.2,0,13-5.8,13-13v-51
			C347,165.2,341.2,159.3,334,159.3z"/>
		<path class="st2" d="M311.5,157.5H33.7c-2.7,0-5,2.3-5,5v73.3c0,2.7,2.3,5,5,5h277.8c2.7,0,5-2.3,5-5v-73.3
			C316.5,159.8,314.2,157.5,311.5,157.5z"/>
	</g>
	<line class="st3" x1="163.7" y1="85.5" x2="109.4" y2="37.9"/>
	<line class="st3" x1="195.2" y1="84.3" x2="246.3" y2="39.1"/>
</g>
</svg>
