<svg xmlns="http://www.w3.org/2000/svg" xmlns:xlink="http://www.w3.org/1999/xlink" viewBox="0 0 56 56"><defs><style>.a{clip-path:url(#b);}</style><clipPath id="b"><rect width="56" height="56"/></clipPath></defs><g id="a" class="a"><g transform="translate(8.1 8.1)"><path d="M17.9,3l3,8.8.7,2H36.7v22a.945.945,0,0,1-1,1H4a.945.945,0,0,1-1-1V4A.945.945,0,0,1,4,3H17.9m2.2-3H4A4.012,4.012,0,0,0,0,4V35.8a4.012,4.012,0,0,0,4,4H35.8a4.012,4.012,0,0,0,4-4v-25h-16L20.1,0Z"/><path d="M25.9,23.5,14.2,16.8V30.3Z"/></g></g></svg>