<svg xmlns="http://www.w3.org/2000/svg" xmlns:xlink="http://www.w3.org/1999/xlink" viewBox="0 0 56 56"><defs><style>.a{clip-path:url(#b);}</style><clipPath id="b"><rect width="56" height="56"/></clipPath></defs><g id="a" class="a"><g transform="translate(9.001 9)"><path d="M15.5,37.7c-2.4,2.2-4.8,2.3-7.2.2L1.7,32c-2.3-2.1-2.3-4.2.2-6.5l3.6-3.3C7.9,20,10.3,20,12.6,22l6.6,5.9c2.3,2.1,2.3,4.2-.2,6.5ZM17,32.6a3.974,3.974,0,0,0,1.2-1.8,1.741,1.741,0,0,0-.5-1.4L11,23.5A1.964,1.964,0,0,0,9.5,23a3.123,3.123,0,0,0-2,1.1L4,27.3a3.974,3.974,0,0,0-1.2,1.8,1.741,1.741,0,0,0,.5,1.4l6.6,5.9a1.964,1.964,0,0,0,1.5.5,3.123,3.123,0,0,0,2-1.1Z"/><path d="M17.4,15.1l10.8,9.6a1.039,1.039,0,0,1,.5.8,1.035,1.035,0,0,1-.5.7c-.3.2-.5.4-.8.4a1.222,1.222,0,0,1-.9-.4L15.7,16.6,12,20a.471.471,0,0,1-.6.1,6.782,6.782,0,0,1-.9-.6,4.371,4.371,0,0,1-.7-.8.471.471,0,0,1,.1-.6L19,9.8a.471.471,0,0,1,.6-.1,6.782,6.782,0,0,1,.9.6,4.371,4.371,0,0,1,.7.8.471.471,0,0,1-.1.6Z"/><path d="M28,5.4,38.8,15a1.039,1.039,0,0,1,.5.8,1.27,1.27,0,0,1-.4.7c-.3.2-.5.4-.8.4a1.222,1.222,0,0,1-.9-.4L26.4,6.9l-3.7,3.4a.471.471,0,0,1-.6.1,6.782,6.782,0,0,1-.9-.6,4.371,4.371,0,0,1-.7-.8.471.471,0,0,1,.1-.6L29.7.1a1.952,1.952,0,0,1,.7-.1,6.782,6.782,0,0,1,.9.6,4.371,4.371,0,0,1,.7.8.735.735,0,0,1-.2.6Z"/><path d="M11.9,27.9,7.5,29a.93.93,0,0,0-.4,1.6l3.3,3a.918.918,0,0,0,1.5-.4l1.2-3.9A1.13,1.13,0,0,0,11.9,27.9Z"/></g><g transform="translate(9.001 9)"><path d="M15.5,37.7c-2.4,2.2-4.8,2.3-7.2.2L1.7,32c-2.3-2.1-2.3-4.2.2-6.5l3.6-3.3C7.9,20,10.3,20,12.6,22l6.6,5.9c2.3,2.1,2.3,4.2-.2,6.5ZM17,32.6a3.974,3.974,0,0,0,1.2-1.8,1.741,1.741,0,0,0-.5-1.4L11,23.5A1.964,1.964,0,0,0,9.5,23a3.123,3.123,0,0,0-2,1.1L4,27.3a3.974,3.974,0,0,0-1.2,1.8,1.741,1.741,0,0,0,.5,1.4l6.6,5.9a1.964,1.964,0,0,0,1.5.5,3.123,3.123,0,0,0,2-1.1Z"/><path d="M17.4,15.1l10.8,9.6a1.039,1.039,0,0,1,.5.8,1.035,1.035,0,0,1-.5.7c-.3.2-.5.4-.8.4a1.222,1.222,0,0,1-.9-.4L15.7,16.6,12,20a.471.471,0,0,1-.6.1,6.782,6.782,0,0,1-.9-.6,4.371,4.371,0,0,1-.7-.8.471.471,0,0,1,.1-.6L19,9.8a.471.471,0,0,1,.6-.1,6.782,6.782,0,0,1,.9.6,4.371,4.371,0,0,1,.7.8.471.471,0,0,1-.1.6Z"/><path d="M28,5.4,38.8,15a1.039,1.039,0,0,1,.5.8,1.27,1.27,0,0,1-.4.7c-.3.2-.5.4-.8.4a1.222,1.222,0,0,1-.9-.4L26.4,6.9l-3.7,3.4a.471.471,0,0,1-.6.1,6.782,6.782,0,0,1-.9-.6,4.371,4.371,0,0,1-.7-.8.471.471,0,0,1,.1-.6L29.7.1a1.952,1.952,0,0,1,.7-.1,6.782,6.782,0,0,1,.9.6,4.371,4.371,0,0,1,.7.8.735.735,0,0,1-.2.6Z"/><path d="M11.9,27.9,7.5,29a.93.93,0,0,0-.4,1.6l3.3,3a.918.918,0,0,0,1.5-.4l1.2-3.9A1.13,1.13,0,0,0,11.9,27.9Z"/></g></g></svg>