<svg xmlns="http://www.w3.org/2000/svg" xmlns:xlink="http://www.w3.org/1999/xlink" viewBox="0 0 56 56"><defs><style>.a{clip-path:url(#b);}.b{fill:none;stroke:#000;stroke-miterlimit:10;stroke-width:4px;}</style><clipPath id="b"><rect width="56" height="56"/></clipPath></defs><g id="a" class="a"><g transform="translate(8 8.3)"><path class="b" d="M34.2,20.9H5.9A3.9,3.9,0,0,1,2,17V6A3.992,3.992,0,0,1,5.9,2H34.2a3.9,3.9,0,0,1,3.9,3.9v11A3.927,3.927,0,0,1,34.2,20.9Z"/><path d="M35.8,24.9c-.5,2.3-2,4-3.7,4H8.1c-1.7,0-3.2-1.7-3.7-4Z"/><path d="M31.6,31.1c-.4,2-1.5,3.5-2.8,3.5H11.3c-1.3,0-2.4-1.5-2.8-3.5H31.6Z"/><path d="M28.2,36.7c-.3,1.7-1.1,3-2,3H13.9c-.9,0-1.7-1.3-2-3Z"/></g></g></svg>