<?xml version="1.0" encoding="utf-8"?>
<!-- Generator: Adobe Illustrator 23.0.4, SVG Export Plug-In . SVG Version: 6.00 Build 0)  -->
<svg version="1.1" id="Layer_1" xmlns="http://www.w3.org/2000/svg" xmlns:xlink="http://www.w3.org/1999/xlink" x="0px" y="0px"
	 viewBox="0 0 56 56" style="enable-background:new 0 0 56 56;" xml:space="preserve">
<style type="text/css">
	.st0{clip-path:url(#SVGID_2_);}
</style>
<g>
	<defs>
		<rect id="SVGID_1_" width="56" height="56"/>
	</defs>
	<clipPath id="SVGID_2_">
		<use xlink:href="#SVGID_1_"  style="overflow:visible;"/>
	</clipPath>
	<g id="a" class="st0">
		<g transform="translate(8 8.3)">
			<path d="M34.2,22.9H5.9C2.6,22.9,0,20.3,0,17V6c0-3.2,2.6-5.9,5.9-6l28.3,0c3.3,0,5.9,2.6,5.9,5.9v11c0,1.5-0.6,3-1.7,4.2
				C37.3,22.2,35.9,22.9,34.2,22.9L34.2,22.9z M5.9,4C4.9,4,4,4.9,4,6v11c0,1,0.9,1.9,1.9,1.9h28.3c0.6,0,1-0.2,1.4-0.6
				c0.4-0.4,0.5-0.9,0.5-1.4v-11c0-1-0.9-1.9-1.9-1.9H5.9z"/>
			<path d="M35.8,24.9c-0.5,2.3-2,4-3.7,4h-24c-1.7,0-3.2-1.7-3.7-4H35.8z"/>
			<path d="M31.6,31.1c-0.4,2-1.5,3.5-2.8,3.5H11.3c-1.3,0-2.4-1.5-2.8-3.5C8.5,31.1,31.6,31.1,31.6,31.1z"/>
			<path d="M28.2,36.7c-0.3,1.7-1.1,3-2,3H13.9c-0.9,0-1.7-1.3-2-3H28.2z"/>
		</g>
	</g>
</g>
</svg>
