<svg xmlns="http://www.w3.org/2000/svg" xmlns:xlink="http://www.w3.org/1999/xlink" viewBox="0 0 56 56"><defs><style>.a{clip-path:url(#b);}</style><clipPath id="b"><rect width="56" height="56"/></clipPath></defs><g id="a" class="a"><g transform="translate(8.277 8.167)"><path d="M3.8,39.4h-2A1.373,1.373,0,0,1,.3,38.2V35.9a.56.56,0,0,1,.6-.5,4.035,4.035,0,0,1,3.3,3.5C4.4,39.2,4.1,39.4,3.8,39.4Z"/><path d="M.4,31h0a1.3,1.3,0,0,0,1.1,1.3,7.222,7.222,0,0,1,5.9,6,1.38,1.38,0,0,0,1.3,1.2h0a1.424,1.424,0,0,0,1.4-1.6,10.1,10.1,0,0,0-8.2-8.3A1.338,1.338,0,0,0,.4,31Z"/><path d="M5.7,6.3h0a.819.819,0,0,0,1,.4,4.558,4.558,0,0,1,5.1,1.6.947.947,0,0,0,1.1.3h0a.874.874,0,0,0,.3-1.3A6.265,6.265,0,0,0,6.1,5.1C5.7,5.2,5.5,5.8,5.7,6.3Z"/><path d="M4.3,2.6h0A1.43,1.43,0,0,0,6,3.3a7.667,7.667,0,0,1,8.4,2.5,1.4,1.4,0,0,0,1.8.4h0a1.414,1.414,0,0,0,.5-2.1A10.351,10.351,0,0,0,5.1.5,1.539,1.539,0,0,0,4.3,2.6Z"/><path d="M27,8.2h0a.849.849,0,0,0,.8.7,4.5,4.5,0,0,1,4.3,3.2.832.832,0,0,0,1,.6h0a.854.854,0,0,0,.7-1.1,6.211,6.211,0,0,0-5.9-4.4A.987.987,0,0,0,27,8.2Z"/><path d="M26.9,4.2h0a1.4,1.4,0,0,0,1.4,1.2,7.637,7.637,0,0,1,7.1,5.2,1.435,1.435,0,0,0,1.6,1h0a1.441,1.441,0,0,0,1.2-1.8,10.456,10.456,0,0,0-9.8-7.2A1.357,1.357,0,0,0,26.9,4.2Z"/><path d="M30.8,27.6h0a.829.829,0,0,0,.3,1.1,4.606,4.606,0,0,1,1.7,5.1.886.886,0,0,0,.4,1h0a.853.853,0,0,0,1.2-.5,6.265,6.265,0,0,0-2.3-7A.858.858,0,0,0,30.8,27.6Z"/><path d="M32.9,24.3h0a1.436,1.436,0,0,0,.5,1.8,7.658,7.658,0,0,1,2.9,8.3A1.252,1.252,0,0,0,37,36h0a1.434,1.434,0,0,0,2-.8,10.4,10.4,0,0,0-4-11.5A1.443,1.443,0,0,0,32.9,24.3Z"/><path d="M16.3,39.7h-3A13.424,13.424,0,0,0,0,26.4v-3A16.433,16.433,0,0,1,16.3,39.7Z"/><path d="M7.4,26.1l-3-.4L6.9,9.2A1.5,1.5,0,0,1,8.6,7.9h0A1.458,1.458,0,0,1,9.8,9.6Z"/><path d="M11.9,31.2,9.8,29.1,27.7,10.9a1.45,1.45,0,0,1,2.1,0h0a1.45,1.45,0,0,1,0,2.1Z"/><path d="M13.5,36.3l-.5-3,16.3-2.6A1.48,1.48,0,0,1,31,31.9h0a1.48,1.48,0,0,1-1.2,1.7Z"/><circle cx="2.1" cy="2.1" r="2.1" transform="translate(6.2 7.8)"/><circle cx="2.1" cy="2.1" r="2.1" transform="translate(27 30.1)"/><circle cx="2.1" cy="2.1" r="2.1" transform="translate(26.5 10.1)"/></g></g></svg>