<?xml version="1.0" encoding="utf-8"?>
<!-- Generator: Adobe Illustrator 23.0.3, SVG Export Plug-In . SVG Version: 6.00 Build 0)  -->
<svg version="1.1" id="Layer_1" xmlns="http://www.w3.org/2000/svg" xmlns:xlink="http://www.w3.org/1999/xlink" x="0px" y="0px"
	 viewBox="0 0 56 56" style="enable-background:new 0 0 56 56;" xml:space="preserve">
<path d="M28.5,50.8c-0.6,0-1.2-0.2-1.7-0.4l-13.5-7.8c-1-0.6-1.6-1.7-1.6-2.8V34l-4.1-2.3c-0.4-0.2-0.7-0.6-0.8-1.1
	c-0.1-0.5,0-1,0.3-1.4l4.1-5.4l-4.7-4c-0.4-0.4-0.6-0.9-0.6-1.4c0.1-0.5,0.4-1,0.8-1.3l15.9-9.2c0.3-0.1,0.5-0.2,0.8-0.2
	c0.4,0,0.9,0.2,1.2,0.5l3.8,3.8l3.9-3.8c0.3-0.3,0.7-0.5,1.2-0.5c0.3,0,0.6,0.1,0.8,0.2l15.1,8.4c0.4,0.2,0.7,0.7,0.8,1.2
	s0,1-0.4,1.4l-4.1,4.8l4.1,4.8c0.3,0.4,0.5,0.8,0.4,1.3s-0.4,0.9-0.8,1.2l-4.2,2.6v6.3c0,1.2-0.6,2.3-1.7,2.9L30,50.6
	C29.6,50.7,29.1,50.8,28.5,50.8L28.5,50.8L28.5,50.8z M15,39.7l11.9,6.8v-9.6l-2,2.7c-0.3,0.4-0.8,0.7-1.3,0.7
	c-0.3,0-0.6-0.1-0.8-0.2L15,35.8V39.7z M30.2,46.5L42,39.7v-4.3L34.5,40c-0.3,0.2-0.6,0.2-0.9,0.2c-0.5,0-1-0.2-1.3-0.7l-2.1-2.8
	C30.2,36.7,30.2,46.5,30.2,46.5z M23,36.5l3-4l-12.2-6.7l-3,4L23,36.5z M34,36.4L46.1,29l-2.9-3.4L31,32.4L34,36.4z M30.2,29.1
	l10.2-5.6l-10.2-6.2V29.1z M26.8,29.1V17.3l-10.1,6.2L26.8,29.1z M13.6,21.5L25.8,14l-2.6-2.6l-12.8,7.4L13.6,21.5z M43.3,21.4
	l2.8-3.3l-12.2-6.8L31.2,14L43.3,21.4z"/>
</svg>
