<svg xmlns="http://www.w3.org/2000/svg" xmlns:xlink="http://www.w3.org/1999/xlink" viewBox="0 0 56 56"><defs><style>.a{clip-path:url(#b);}</style><clipPath id="b"><rect width="56" height="56"/></clipPath></defs><g id="a" class="a"><g transform="translate(8 8.05)"><path d="M36.9,3.1V24.3H3.2V3.1H36.9m1-3.1H2.1A2.112,2.112,0,0,0,0,2.1V25.4a2.051,2.051,0,0,0,2.1,2.1H37.9A2.051,2.051,0,0,0,40,25.4V2.1A2.051,2.051,0,0,0,37.9,0Z"/><rect width="9.4" height="4" transform="translate(0 33.9)"/><rect width="26.6" height="4" transform="translate(13.4 33.9)"/><rect width="4" height="8" transform="translate(13.4 31.9)"/><g transform="translate(12.7 6.45)"><circle cx="3" cy="3" r="3" transform="translate(4.3 4.3)"/><path d="M7.3,2A5.3,5.3,0,1,1,2,7.3,5.335,5.335,0,0,1,7.3,2m0-2A7.341,7.341,0,0,0,0,7.3a7.341,7.341,0,0,0,7.3,7.3,7.341,7.341,0,0,0,7.3-7.3A7.341,7.341,0,0,0,7.3,0Z"/></g></g></g></svg>