<svg xmlns="http://www.w3.org/2000/svg" xmlns:xlink="http://www.w3.org/1999/xlink" viewBox="0 0 56 56"><defs><style>.a{clip-path:url(#b);}</style><clipPath id="b"><rect width="56" height="56"/></clipPath></defs><g id="a" class="a"><path d="M16.352,30.866A15.452,15.452,0,0,0,30.891,15.442,15.448,15.448,0,0,0,15.442,0,15.448,15.448,0,0,0,0,15.442,15.452,15.452,0,0,0,14.539,30.866a.244.244,0,0,1,.191.375.871.871,0,0,0-.148.486v.658h0a1.2,1.2,0,0,0-1.2,1.2V46.475a1.2,1.2,0,0,0,1.2,1.2H16.3a1.2,1.2,0,0,0,1.2-1.2V33.584a1.2,1.2,0,0,0-1.2-1.2h0v-.664a.886.886,0,0,0-.148-.486A.238.238,0,0,1,16.352,30.866Zm-.91-4.18a11.239,11.239,0,1,1,7.949-3.3A11.185,11.185,0,0,1,15.442,26.686Z" transform="translate(1.981 22.584) rotate(-43)"/></g></svg>