<svg xmlns="http://www.w3.org/2000/svg" xmlns:xlink="http://www.w3.org/1999/xlink" viewBox="0 0 56 56"><defs><style>.a{clip-path:url(#b);}</style><clipPath id="b"><rect width="56" height="56"/></clipPath></defs><g id="a" class="a"><g transform="translate(8 8.063)"><path d="M33.7,8.4H24.4l6.4-5.8A1.454,1.454,0,0,0,30.9.5,1.45,1.45,0,0,0,28.8.4L20.2,8,11.6.3A1.542,1.542,0,0,0,9.5.4a1.668,1.668,0,0,0,.2,2.2l6.4,5.8H6.8A6.807,6.807,0,0,0,0,15.2V33.6a6.807,6.807,0,0,0,6.8,6.8H33.6a6.807,6.807,0,0,0,6.8-6.8V15.2A6.66,6.66,0,0,0,33.7,8.4ZM9.4,35.9H6.8a2.263,2.263,0,0,1-2.3-2.3V15.2a2.326,2.326,0,0,1,2.3-2.3H9.3v23Zm18.7,0H12.4v-23H28.1v23Zm7.8-2.3a2.263,2.263,0,0,1-2.3,2.3H31.1v-23h2.5a2.263,2.263,0,0,1,2.3,2.3Z"/></g></g></svg>