<svg xmlns="http://www.w3.org/2000/svg" xmlns:xlink="http://www.w3.org/1999/xlink" viewBox="0 0 56 56"><defs><style>.a{clip-path:url(#b);}</style><clipPath id="b"><rect width="56" height="56"/></clipPath></defs><g id="a" class="a"><g transform="translate(8.35 8.35)"><path d="M19.6,35.3A15.65,15.65,0,1,1,35.3,19.7,15.642,15.642,0,0,1,19.6,35.3Zm0-27A11.35,11.35,0,1,0,31,19.6,11.395,11.395,0,0,0,19.6,8.3Z"/><path d="M24.6,6.1H15.4V3.2A3.222,3.222,0,0,1,18.6,0h2.9a3.222,3.222,0,0,1,3.2,3.2V6.1Z"/><path d="M14.6,33.2h9.2v2.9a3.222,3.222,0,0,1-3.2,3.2H17.7a3.222,3.222,0,0,1-3.2-3.2V33.2Z"/><path d="M6.1,14.6v9.2H3.2A3.222,3.222,0,0,1,0,20.6V17.7a3.222,3.222,0,0,1,3.2-3.2H6.1Z"/><path d="M33.2,24.6V15.4h2.9a3.222,3.222,0,0,1,3.2,3.2v2.9a3.222,3.222,0,0,1-3.2,3.2H33.2Z"/><path d="M13.6,6.5,7,13,5,11A3.262,3.262,0,0,1,5,6.5l2-2a3.262,3.262,0,0,1,4.5,0Z"/><path d="M25.7,32.8l6.5-6.5,2,2a3.262,3.262,0,0,1,0,4.5l-2,2a3.262,3.262,0,0,1-4.5,0Z"/><path d="M6.5,25.7,13,32.2l-2,2a3.262,3.262,0,0,1-4.5,0l-2-2a3.262,3.262,0,0,1,0-4.5Z"/><path d="M32.8,13.6,26.3,7l2-2a3.262,3.262,0,0,1,4.5,0l2,2a3.262,3.262,0,0,1,0,4.5Z"/></g></g></svg>