<svg xmlns="http://www.w3.org/2000/svg" xmlns:xlink="http://www.w3.org/1999/xlink" viewBox="0 0 56 56"><defs><style>.a{clip-path:url(#b);}</style><clipPath id="b"><rect width="56" height="56"/></clipPath></defs><g id="a" class="a"><g transform="translate(8 14)"><path d="M35.7,4a.265.265,0,0,1,.3.3V24.5a.265.265,0,0,1-.3.3H4.3a.265.265,0,0,1-.3-.3V4.3A.265.265,0,0,1,4.3,4H35.7m0-4H4.3A4.268,4.268,0,0,0,0,4.3V24.5a4.268,4.268,0,0,0,4.3,4.3H35.7A4.268,4.268,0,0,0,40,24.5V4.3A4.207,4.207,0,0,0,35.7,0Z"/><g transform="translate(1)"><path d="M23.9,13,16.1,8.5a1.615,1.615,0,0,0-2.4,1.4v9a1.615,1.615,0,0,0,2.4,1.4l7.8-4.5A1.6,1.6,0,0,0,23.9,13Z"/></g></g></g></svg>