<?xml version="1.0" encoding="utf-8"?>
<!-- Generator: Adobe Illustrator 23.0.2, SVG Export Plug-In . SVG Version: 6.00 Build 0)  -->
<svg version="1.1" id="Layer_1" xmlns="http://www.w3.org/2000/svg" xmlns:xlink="http://www.w3.org/1999/xlink" x="0px" y="0px"
	 viewBox="0 0 295.6 55.8" style="enable-background:new 0 0 295.6 55.8;" xml:space="preserve">
<style type="text/css">
	.st0{opacity:0.86;enable-background:new    ;}
	.st1{fill:#FFFFFF;}
</style>
<g class="st0">
	<path class="st1" d="M0.4,18.5c1.7-0.5,4-1,6.8-1.5c2.8-0.4,5.7-0.7,8.7-0.7c3.1,0,5.6,0.4,7.7,1.2c2,0.8,3.7,2,4.9,3.5
		c1.2,1.5,2,3.3,2.6,5.4c0.5,2.1,0.8,4.4,0.8,6.9v21H21.4V34.7c0-3.4-0.4-5.8-1.3-7.2c-0.9-1.4-2.5-2.1-4.9-2.1
		c-0.7,0-1.5,0-2.3,0.1s-1.6,0.2-2.2,0.2v28.7H0.4V18.5z"/>
	<path class="st1" d="M55.4,27.7l7.2-10.4h10.6L60.6,35.4c2.9,3.4,5.4,6.8,7.7,10.1c2.2,3.4,4,6.4,5.4,9h-11
		c-0.4-0.7-0.8-1.6-1.4-2.7c-0.6-1.1-1.2-2.2-1.9-3.3c-0.7-1.2-1.4-2.1-2.2-2.9c-0.7-0.8-1.5-1.5-2.2-2.2c-0.7,0.6-1.4,1.3-2.1,2
		c-0.7,0.7-1.4,1.7-2,2.8c-0.6,1.1-1.3,2.2-1.9,3.3s-1.2,2.1-1.7,3H36.9c0.6-1.2,1.3-2.5,2.3-4.2s2-3.3,3.1-5c1.1-1.7,2.4-3.4,3.7-5
		c1.3-1.6,2.6-3.1,3.9-4.6c-2.3-3.3-4.4-6.5-6.5-9.5c-2.1-3-4.1-6-6.2-9h11.1L55.4,27.7z"/>
	<path class="st1" d="M106.1,46.9c1.9,0,3.2-0.2,4-0.6c0.8-0.4,1.2-1.1,1.2-2.2c0-0.8-0.5-1.6-1.5-2.2c-1-0.6-2.6-1.4-4.6-2.2
		c-1.6-0.6-3.1-1.2-4.4-1.9c-1.3-0.7-2.4-1.5-3.3-2.4c-0.9-0.9-1.6-2-2.1-3.3c-0.5-1.3-0.8-2.8-0.8-4.6c0-3.5,1.3-6.3,3.8-8.3
		c2.5-2,6-3,10.4-3c2.2,0,4.3,0.2,6.3,0.6c2,0.4,3.6,0.8,4.8,1.3l-1.8,8.2c-1.2-0.4-2.5-0.8-3.9-1.1c-1.4-0.3-3-0.5-4.7-0.5
		c-3.2,0-4.8,0.9-4.8,2.8c0,0.4,0.1,0.8,0.2,1.1c0.1,0.3,0.4,0.6,0.8,1c0.4,0.3,1,0.6,1.7,1c0.7,0.4,1.6,0.8,2.7,1.2
		c2.3,0.9,4.1,1.7,5.6,2.5c1.5,0.8,2.6,1.7,3.5,2.7c0.8,1,1.4,2,1.8,3.2c0.3,1.2,0.5,2.5,0.5,4.1c0,3.7-1.3,6.5-4,8.3
		c-2.7,1.9-6.5,2.8-11.4,2.8c-3.2,0-5.9-0.3-8-0.8s-3.6-1-4.4-1.4l1.7-8.6c1.7,0.7,3.5,1.3,5.4,1.7
		C102.5,46.7,104.3,46.9,106.1,46.9z"/>
	<path class="st1" d="M128.8,8l10.3-1.7v11h12.3V26h-12.3v13.1c0,2.2,0.4,4,1.1,5.3c0.8,1.3,2.3,2,4.6,2c1.1,0,2.2-0.1,3.4-0.3
		s2.2-0.5,3.2-0.9l1.4,8.2c-1.2,0.5-2.6,1-4.1,1.3c-1.5,0.4-3.4,0.6-5.6,0.6c-2.8,0-5.1-0.4-7-1.2c-1.8-0.8-3.3-1.9-4.4-3.3
		c-1.1-1.4-1.9-3.1-2.3-5.1c-0.4-2-0.7-4.2-0.7-6.6V8z"/>
	<path class="st1" d="M190.7,53.2c-1.7,0.5-4,1-6.8,1.5c-2.8,0.4-5.7,0.7-8.7,0.7c-3.1,0-5.6-0.4-7.7-1.3s-3.7-2-4.9-3.6
		c-1.2-1.5-2-3.4-2.6-5.5c-0.5-2.1-0.8-4.5-0.8-7V17.3h10.3v19.5c0,3.4,0.4,5.9,1.3,7.4s2.5,2.3,4.9,2.3c0.7,0,1.5,0,2.3-0.1
		c0.8-0.1,1.6-0.2,2.2-0.2V17.3h10.3V53.2z"/>
	<path class="st1" d="M232.3,53.3c-0.9,0.3-2,0.6-3.2,0.8c-1.2,0.3-2.4,0.5-3.8,0.7c-1.3,0.2-2.6,0.3-4,0.5
		c-1.4,0.1-2.7,0.2-3.9,0.2c-3,0-5.7-0.4-8-1.3c-2.3-0.9-4.3-2.2-5.9-3.9c-1.6-1.7-2.8-3.7-3.7-6.1c-0.9-2.4-1.3-5.1-1.3-8
		c0-3,0.4-5.7,1.1-8.2c0.7-2.4,1.8-4.5,3.2-6.2c1.4-1.7,3.1-3,5.1-3.9c2-0.9,4.3-1.3,6.9-1.3c1.4,0,2.7,0.1,3.8,0.4
		c1.1,0.3,2.3,0.7,3.4,1.2V1.3l10.3-1.7V53.3z M209.1,35.6c0,3.3,0.7,5.9,2.1,7.9c1.4,2,3.5,3,6.3,3c0.9,0,1.8,0,2.6-0.1
		c0.8-0.1,1.4-0.2,1.9-0.2V26.9c-0.6-0.4-1.5-0.8-2.5-1.1c-1-0.3-2.1-0.4-3.1-0.4C211.6,25.4,209.1,28.8,209.1,35.6z"/>
	<path class="st1" d="M253.2,6.5c0,1.9-0.6,3.5-1.8,4.6c-1.2,1.1-2.7,1.7-4.3,1.7c-1.7,0-3.1-0.6-4.3-1.7c-1.2-1.1-1.8-2.6-1.8-4.6
		c0-1.9,0.6-3.5,1.8-4.6c1.2-1.1,2.7-1.7,4.3-1.7c1.7,0,3.1,0.6,4.3,1.7C252.6,3,253.2,4.6,253.2,6.5z M252.3,54.5H242V17.3h10.3
		V54.5z"/>
	<path class="st1" d="M295.8,35.8c0,2.9-0.4,5.6-1.2,8c-0.8,2.4-2,4.5-3.6,6.2s-3.4,3.1-5.6,4s-4.6,1.4-7.3,1.4
		c-2.7,0-5.1-0.5-7.3-1.4c-2.2-0.9-4.1-2.3-5.6-4c-1.6-1.7-2.8-3.8-3.7-6.2c-0.9-2.4-1.3-5.1-1.3-8s0.4-5.6,1.3-8
		c0.9-2.4,2.1-4.5,3.7-6.2c1.6-1.7,3.5-3,5.7-4c2.2-0.9,4.6-1.4,7.1-1.4c2.6,0,5,0.5,7.2,1.4c2.2,0.9,4.1,2.3,5.6,4
		c1.6,1.7,2.8,3.8,3.7,6.2C295.4,30.2,295.8,32.9,295.8,35.8z M285.4,35.8c0-3.3-0.6-5.8-1.9-7.7c-1.3-1.9-3.1-2.8-5.4-2.8
		s-4.2,0.9-5.4,2.8c-1.3,1.9-1.9,4.4-1.9,7.7s0.6,5.8,1.9,7.8c1.3,1.9,3.1,2.9,5.4,2.9s4.1-1,5.4-2.9
		C284.7,41.6,285.4,39.1,285.4,35.8z"/>
</g>
</svg>
