<svg xmlns="http://www.w3.org/2000/svg" xmlns:xlink="http://www.w3.org/1999/xlink" width="155" height="48" viewBox="0 0 155 48">
  <defs>
    <clipPath id="clip-vc_server_warn">
      <rect width="155" height="48"/>
    </clipPath>
  </defs>
  <g id="vc_server_warn" clip-path="url(#clip-vc_server_warn)">
    <g id="Group_168" data-name="Group 168">
      <g id="Group_166" data-name="Group 166" transform="translate(-13.754 -24.169)">
        <path id="Path_124" data-name="Path 124" d="M10.393,0H142.717A10.372,10.372,0,0,1,153.11,10.351V35.826a10.372,10.372,0,0,1-10.393,10.351H10.393A10.372,10.372,0,0,1,0,35.826V10.351A10.372,10.372,0,0,1,10.393,0Z" transform="translate(14.754 25.169)" fill="#bebebe"/>
        <rect id="Rectangle_153" data-name="Rectangle 153" width="86.897" height="3.55" transform="translate(80.967 46.482)" fill="#ffe200"/>
        <path id="Path_122" data-name="Path 122" d="M86.178,52.8h0a5.734,5.734,0,0,1-5.735,5.734H54.364a12.9,12.9,0,1,1,0-11.468h26.08A5.734,5.734,0,0,1,86.178,52.8Z" transform="translate(-4.67 -4.54)" fill="#1d2731"/>
        <path id="Path_123" data-name="Path 123" d="M44.371,63.906a9.664,9.664,0,1,1,9.664-9.664A9.675,9.675,0,0,1,44.371,63.906Zm0-17.253a7.589,7.589,0,1,0,7.589,7.589A7.6,7.6,0,0,0,44.371,46.653Z" transform="translate(-6.152 -5.985)" fill="#ffe200"/>
        <g id="Group_160" data-name="Group 160" transform="translate(91.621 30.606)">
          <g id="Group_156" data-name="Group 156">
            <g id="Group_154" data-name="Group 154">
              <rect id="Rectangle_154" data-name="Rectangle 154" width="7.49" height="4.631" fill="#1d2731"/>
              <rect id="Rectangle_155" data-name="Rectangle 155" width="7.49" height="4.631" transform="translate(10.714)" fill="#1d2731"/>
              <rect id="Rectangle_156" data-name="Rectangle 156" width="7.49" height="4.631" transform="translate(21.429)" fill="#1d2731"/>
              <rect id="Rectangle_157" data-name="Rectangle 157" width="7.49" height="4.631" transform="translate(32.143)" fill="#1d2731"/>
              <rect id="Rectangle_158" data-name="Rectangle 158" width="7.49" height="4.631" transform="translate(42.857)" fill="#1d2731"/>
              <rect id="Rectangle_159" data-name="Rectangle 159" width="7.49" height="4.631" transform="translate(53.572)" fill="#1d2731"/>
              <rect id="Rectangle_160" data-name="Rectangle 160" width="7.49" height="4.631" transform="translate(64.286)" fill="#1d2731"/>
            </g>
            <g id="Group_155" data-name="Group 155" transform="translate(0 7.17)">
              <rect id="Rectangle_161" data-name="Rectangle 161" width="7.49" height="4.631" fill="#1d2731"/>
              <rect id="Rectangle_162" data-name="Rectangle 162" width="7.49" height="4.631" transform="translate(10.714)" fill="#1d2731"/>
              <rect id="Rectangle_163" data-name="Rectangle 163" width="7.49" height="4.631" transform="translate(21.429)" fill="#1d2731"/>
              <rect id="Rectangle_164" data-name="Rectangle 164" width="7.49" height="4.631" transform="translate(32.143)" fill="#1d2731"/>
              <rect id="Rectangle_165" data-name="Rectangle 165" width="7.49" height="4.631" transform="translate(42.857)" fill="#1d2731"/>
              <rect id="Rectangle_166" data-name="Rectangle 166" width="7.49" height="4.631" transform="translate(53.572)" fill="#1d2731"/>
              <rect id="Rectangle_167" data-name="Rectangle 167" width="7.49" height="4.631" transform="translate(64.286)" fill="#1d2731"/>
            </g>
          </g>
          <g id="Group_159" data-name="Group 159" transform="translate(0 23.502)">
            <g id="Group_157" data-name="Group 157">
              <rect id="Rectangle_168" data-name="Rectangle 168" width="7.49" height="4.631" fill="#1d2731"/>
              <rect id="Rectangle_169" data-name="Rectangle 169" width="7.49" height="4.631" transform="translate(10.714)" fill="#1d2731"/>
              <rect id="Rectangle_170" data-name="Rectangle 170" width="7.49" height="4.631" transform="translate(21.429)" fill="#1d2731"/>
              <rect id="Rectangle_171" data-name="Rectangle 171" width="7.49" height="4.631" transform="translate(32.143)" fill="#1d2731"/>
              <rect id="Rectangle_172" data-name="Rectangle 172" width="7.49" height="4.631" transform="translate(42.857)" fill="#1d2731"/>
              <rect id="Rectangle_173" data-name="Rectangle 173" width="7.49" height="4.631" transform="translate(53.572)" fill="#1d2731"/>
              <rect id="Rectangle_174" data-name="Rectangle 174" width="7.49" height="4.631" transform="translate(64.286)" fill="#1d2731"/>
            </g>
            <g id="Group_158" data-name="Group 158" transform="translate(0 7.17)">
              <rect id="Rectangle_175" data-name="Rectangle 175" width="7.49" height="4.631" fill="#1d2731"/>
              <rect id="Rectangle_176" data-name="Rectangle 176" width="7.49" height="4.631" transform="translate(10.714)" fill="#1d2731"/>
              <rect id="Rectangle_177" data-name="Rectangle 177" width="7.49" height="4.631" transform="translate(21.429)" fill="#1d2731"/>
              <rect id="Rectangle_178" data-name="Rectangle 178" width="7.49" height="4.631" transform="translate(32.143)" fill="#1d2731"/>
              <rect id="Rectangle_179" data-name="Rectangle 179" width="7.49" height="4.631" transform="translate(42.857)" fill="#1d2731"/>
              <rect id="Rectangle_180" data-name="Rectangle 180" width="7.49" height="4.631" transform="translate(53.572)" fill="#1d2731"/>
              <rect id="Rectangle_181" data-name="Rectangle 181" width="7.49" height="4.631" transform="translate(64.286)" fill="#1d2731"/>
            </g>
          </g>
        </g>
        <circle id="Ellipse_19" data-name="Ellipse 19" cx="1.789" cy="1.789" r="1.789" transform="translate(54.555 46.728)" fill="#ffe200"/>
        <circle id="Ellipse_20" data-name="Ellipse 20" cx="1.789" cy="1.789" r="1.789" transform="translate(64.037 46.728)" fill="#ffe200"/>
        <circle id="Ellipse_21" data-name="Ellipse 21" cx="1.789" cy="1.789" r="1.789" transform="translate(73.52 46.728)" fill="#ffe200"/>
      </g>
      <path id="Path_125" data-name="Path 125" d="M10.393,0H142.717A10.372,10.372,0,0,1,153.11,10.351V35.826a10.372,10.372,0,0,1-10.393,10.351H10.393A10.372,10.372,0,0,1,0,35.826V10.351A10.372,10.372,0,0,1,10.393,0Z" transform="translate(1 1)" fill="none" stroke="#707070" stroke-width="1"/>
    </g>
  </g>
</svg>
