<?xml version="1.0" encoding="utf-8"?>
<!-- Generator: Adobe Illustrator 23.0.2, SVG Export Plug-In . SVG Version: 6.00 Build 0)  -->
<svg version="1.1" id="Layer_1" xmlns="http://www.w3.org/2000/svg" xmlns:xlink="http://www.w3.org/1999/xlink" x="0px" y="0px"
	 viewBox="0 0 500 500" style="enable-background:new 0 0 500 500;" xml:space="preserve">
<g>
	<path d="M251.4,92c-88.1,0-159.6,71.5-159.6,159.6s71.4,159.6,159.6,159.6S411,339.8,411,251.6S339.5,92,251.4,92z M355.8,254
		c0,10.7-8.8,19.5-19.5,19.5H163.8c-10.7,0-19.5-8.8-19.5-19.5v-8.4c0-10.7,8.8-19.5,19.5-19.5h172.5c10.7,0,19.5,8.8,19.5,19.5V254
		z"/>
</g>
<path d="M250,44.4c54.9,0,106.4,21.4,145.2,60.2s60.2,90.4,60.2,145.3s-21.4,106.5-60.2,145.3s-90.4,60.2-145.2,60.2
	s-106.4-21.4-145.2-60.2s-60.2-90.4-60.2-145.3S66,143.3,104.8,104.5S195.2,44.4,250,44.4 M250-0.1C112.1-0.1,0.2,111.8,0.2,249.8
	S112.1,499.7,250,499.7s249.8-111.9,249.8-249.9S388-0.1,250-0.1L250-0.1z"/>
<g>
</g>
<g>
</g>
<g>
</g>
<g>
</g>
<g>
</g>
<g>
</g>
</svg>
